<?xml version="1.0" standalone="no"?>
<!DOCTYPE svg PUBLIC "-//W3C//DTD SVG 20010904//EN"
 "http://www.w3.org/TR/2001/REC-SVG-20010904/DTD/svg10.dtd">
<svg version="1.0" xmlns="http://www.w3.org/2000/svg"
 width="203.000000pt" height="205.000000pt" viewBox="0 0 203.000000 205.000000"
 preserveAspectRatio="xMidYMid meet">

<g transform="translate(0.000000,205.000000) scale(0.100000,-0.100000)"
fill="#000000" stroke="none">
<path d="M886 2039 c-171 -25 -336 -97 -485 -212 -172 -131 -300 -325 -358
-542 -23 -88 -26 -119 -26 -260 0 -141 3 -172 26 -258 78 -293 274 -532 542
-662 159 -77 255 -99 435 -99 180 0 276 22 435 99 268 130 464 370 542 660 23
88 26 119 26 260 0 141 -3 172 -26 259 -107 400 -427 690 -827 751 -104 16
-192 17 -284 4z m235 -644 c4 -60 7 -138 8 -172 1 -52 4 -63 18 -63 9 0 71 17
137 39 173 55 173 55 190 29 8 -13 21 -52 30 -87 13 -52 14 -67 4 -76 -7 -6
-71 -30 -143 -54 -71 -23 -135 -49 -142 -58 -12 -16 8 -51 121 -209 l49 -69
-54 -47 c-86 -76 -94 -78 -129 -37 -16 19 -59 78 -97 131 -39 56 -75 97 -85
98 -10 0 -44 -39 -85 -96 -37 -53 -82 -112 -99 -132 -28 -32 -32 -34 -54 -22
-28 15 -124 89 -127 99 -2 3 24 44 57 91 34 47 74 105 91 130 29 43 34 74 14
76 -6 0 -18 4 -27 8 -9 4 -67 24 -130 45 -139 45 -140 45 -132 79 8 40 46 142
53 147 7 4 67 -12 224 -59 48 -14 92 -26 97 -26 6 0 10 64 10 168 0 93 3 172
7 176 4 4 48 5 98 4 l90 -3 6 -110z"/>
</g>
</svg>
